<svg width="64" height="64" viewBox="0 0 64 64" fill="none" xmlns="http://www.w3.org/2000/svg">
<path d="M64 51.5017C64 52.9383 63.4972 54.1594 62.4916 55.165L55.165 62.4916C54.1594 63.4972 52.9383 64 51.5017 64C50.0651 64 48.844 63.4972 47.8384 62.4916L32 46.6532L16.1616 62.4916C15.156 63.4972 13.9349 64 12.4983 64C11.0617 64 9.84063 63.4972 8.83502 62.4916L1.50842 55.165C0.502806 54.1594 0 52.9383 0 51.5017C0 50.0651 0.502806 48.844 1.50842 47.8384L17.3468 32L1.50842 16.1616C0.502806 15.156 0 13.9349 0 12.4983C0 11.0617 0.502806 9.84063 1.50842 8.83502L8.83502 1.50842C9.84063 0.502806 11.0617 0 12.4983 0C13.9349 0 15.156 0.502806 16.1616 1.50842L32 17.3468L47.8384 1.50842C48.844 0.502806 50.0651 0 51.5017 0C52.9383 0 54.1594 0.502806 55.165 1.50842L62.4916 8.83502C63.4972 9.84063 64 11.0617 64 12.4983C64 13.9349 63.4972 15.156 62.4916 16.1616L46.6532 32L62.4916 47.8384C63.4972 48.844 64 50.0651 64 51.5017Z" fill="white"/>
</svg>
