<svg width="64" height="64" viewBox="0 0 64 64" fill="none" xmlns="http://www.w3.org/2000/svg">
<path d="M32.0646 64C23.0984 64 15.5133 60.8968 9.30941 54.6903C3.10551 48.4839 0.00237515 40.8987 0 31.9346C0 23.7401 2.67205 16.6287 8.01614 10.6005C13.3602 4.57216 20.1888 1.05447 28.5018 0.0473779C29.2737 -0.0713828 29.9566 0.0331268 30.5504 0.360906C31.1442 0.688686 31.6192 1.1186 31.9755 1.65065C32.3318 2.18269 32.5253 2.80619 32.5562 3.52113C32.5871 4.23607 32.3638 4.91894 31.8864 5.56975C30.877 7.11364 30.1193 8.7466 29.6134 10.4686C29.1075 12.1907 28.8557 14.0018 28.8581 15.9019C28.8581 21.2462 30.7285 25.7888 34.4694 29.5297C38.2103 33.2707 42.7527 35.1412 48.0968 35.1412C49.9376 35.1412 51.7641 34.8739 53.5763 34.3395C55.3885 33.8051 57.006 33.0628 58.4287 32.1128C59.0819 31.6971 59.7505 31.5047 60.4346 31.5356C61.1186 31.5665 61.7266 31.7292 62.2587 32.0237C62.8525 32.3206 63.3132 32.7659 63.641 33.3597C63.9688 33.9535 64.0721 34.6661 63.951 35.4974C63.1197 43.6919 59.6318 50.491 53.4872 55.8946C47.3427 61.2982 40.2018 64 32.0646 64Z" fill="white"/>
</svg>
