<svg width="64" height="64" viewBox="0 0 64 64" fill="none" xmlns="http://www.w3.org/2000/svg">
<path d="M19.6 61.4816C15.7067 59.8005 12.3072 57.5072 9.4016 54.6016C6.496 51.696 4.20267 48.2955 2.5216 44.4C0.840534 40.5045 0 36.3584 0 31.9616C0 27.5648 0.840534 23.4315 2.5216 19.5616C4.20267 15.6917 6.496 12.3051 9.4016 9.4016C12.3072 6.49814 15.7067 4.2048 19.6 2.5216C23.4933 0.838404 27.6405 -0.00212928 32.0416 4.05063e-06C36.4427 0.00213738 40.576 0.842671 44.4416 2.5216C48.3072 4.20054 51.6939 6.49387 54.6016 9.4016C57.5093 12.3093 59.8027 15.696 61.4816 19.5616C63.1605 23.4272 64 27.5605 64 31.9616C64 36.3627 63.1605 40.5088 61.4816 44.4C59.8027 48.2912 57.5093 51.6917 54.6016 54.6016C51.6939 57.5115 48.3072 59.8048 44.4416 61.4816C40.576 63.1584 36.4427 63.9979 32.0416 64C27.6405 64.0021 23.4933 63.1627 19.6 61.4816ZM32 57.44C33.3867 55.52 34.5867 53.52 35.6 51.44C36.6133 49.36 37.44 47.1467 38.08 44.8H25.92C26.56 47.1467 27.3867 49.36 28.4 51.44C29.4133 53.52 30.6133 55.52 32 57.44ZM23.68 56.16C22.72 54.4 21.8805 52.5728 21.1616 50.6784C20.4427 48.784 19.8421 46.8245 19.36 44.8H9.92C11.4667 47.4667 13.4005 49.7867 15.7216 51.76C18.0427 53.7333 20.6955 55.2 23.68 56.16ZM40.32 56.16C43.3067 55.2 45.9605 53.7333 48.2816 51.76C50.6027 49.7867 52.5355 47.4667 54.08 44.8H44.64C44.16 46.8267 43.5605 48.7872 42.8416 50.6816C42.1227 52.576 41.2821 54.4021 40.32 56.16ZM7.2 38.4H18.08C17.92 37.3333 17.8005 36.2805 17.7216 35.2416C17.6427 34.2027 17.6021 33.1221 17.6 32C17.5979 30.8779 17.6384 29.7984 17.7216 28.7616C17.8048 27.7248 17.9243 26.6709 18.08 25.6H7.2C6.93333 26.6667 6.73387 27.7205 6.6016 28.7616C6.46933 29.8027 6.40213 30.8821 6.4 32C6.39787 33.1179 6.46507 34.1984 6.6016 35.2416C6.73813 36.2848 6.9376 37.3376 7.2 38.4ZM24.48 38.4H39.52C39.68 37.3333 39.8005 36.2805 39.8816 35.2416C39.9627 34.2027 40.0021 33.1221 40 32C39.9979 30.8779 39.9573 29.7984 39.8784 28.7616C39.7995 27.7248 39.68 26.6709 39.52 25.6H24.48C24.32 26.6667 24.2005 27.7205 24.1216 28.7616C24.0427 29.8027 24.0021 30.8821 24 32C23.9979 33.1179 24.0384 34.1984 24.1216 35.2416C24.2048 36.2848 24.3243 37.3376 24.48 38.4ZM45.92 38.4H56.8C57.0667 37.3333 57.2672 36.2805 57.4016 35.2416C57.536 34.2027 57.6021 33.1221 57.6 32C57.5979 30.8779 57.5317 29.7984 57.4016 28.7616C57.2715 27.7248 57.0709 26.6709 56.8 25.6H45.92C46.08 26.6667 46.2005 27.7205 46.2816 28.7616C46.3627 29.8027 46.4021 30.8821 46.4 32C46.3979 33.1179 46.3573 34.1984 46.2784 35.2416C46.1995 36.2848 46.08 37.3376 45.92 38.4ZM44.64 19.2H54.08C52.5333 16.5333 50.6005 14.2133 48.2816 12.24C45.9627 10.2667 43.3088 8.8 40.32 7.84C41.28 9.6 42.1205 11.4272 42.8416 13.3216C43.5627 15.216 44.1621 17.1755 44.64 19.2ZM25.92 19.2H38.08C37.44 16.8533 36.6133 14.64 35.6 12.56C34.5867 10.48 33.3867 8.48 32 6.56C30.6133 8.48 29.4133 10.48 28.4 12.56C27.3867 14.64 26.56 16.8533 25.92 19.2ZM9.92 19.2H19.36C19.84 17.1733 20.4405 15.2128 21.1616 13.3184C21.8827 11.424 22.7221 9.59787 23.68 7.84C20.6933 8.8 18.0395 10.2667 15.7184 12.24C13.3973 14.2133 11.4645 16.5333 9.92 19.2Z" fill="white"/>
</svg>
