<svg width="64" height="64" viewBox="0 0 64 64" fill="none" xmlns="http://www.w3.org/2000/svg">
<path d="M32 54.403C32.7839 54.4031 33.5404 54.6909 34.1262 55.2118C34.712 55.7326 35.0862 56.4503 35.178 57.2288L35.2004 57.6032V60.8034C35.1994 61.619 34.8871 62.4036 34.3271 62.9967C33.7672 63.5898 33.0019 63.9467 32.1876 63.9945C31.3733 64.0423 30.5714 63.7774 29.9459 63.2539C29.3204 62.7303 28.9184 61.9877 28.822 61.1778L28.7996 60.8034V57.6032C28.7996 56.7545 29.1368 55.9405 29.737 55.3403C30.3372 54.7402 31.1512 54.403 32 54.403ZM52.2038 47.7146L52.5047 47.9803L54.7449 50.2204C55.3189 50.7963 55.6521 51.569 55.677 52.3817C55.7018 53.1944 55.4163 53.9861 54.8785 54.5959C54.3408 55.2058 53.591 55.5881 52.7816 55.6652C51.9721 55.7423 51.1637 55.5084 50.5205 55.0111L50.2196 54.7454L47.9794 52.5053C47.4271 51.954 47.0953 51.22 47.0463 50.4412C46.9974 49.6624 47.2347 48.8926 47.7136 48.2765C48.1925 47.6605 48.88 47.2406 49.6468 47.0958C50.4136 46.9511 51.2069 47.0915 51.8774 47.4906L52.2038 47.7146ZM16.0206 47.9803C16.5717 48.5313 16.9027 49.2645 16.9516 50.0422C17.0005 50.8199 16.7639 51.5888 16.2863 52.2045L16.0206 52.5053L13.7804 54.7454C13.2045 55.3194 12.4316 55.6526 11.6189 55.6774C10.8062 55.7022 10.0145 55.4168 9.40461 54.879C8.79473 54.3413 8.41241 53.5916 8.3353 52.7822C8.25819 51.9728 8.49208 51.1644 8.98945 50.5212L9.25508 50.2204L11.4953 47.9803C12.0955 47.3803 12.9094 47.0433 13.758 47.0433C14.6066 47.0433 15.4205 47.3803 16.0206 47.9803ZM6.39716 28.8016C7.21287 28.8025 7.99744 29.1148 8.59059 29.6748C9.18373 30.2347 9.54066 31 9.58847 31.8142C9.63627 32.6285 9.37133 33.4303 8.84779 34.0558C8.32424 34.6812 7.5816 35.0832 6.77161 35.1796L6.39716 35.202H3.19681C2.3811 35.201 1.59653 34.8887 1.00339 34.3288C0.410246 33.7689 0.0533088 33.0036 0.00550472 32.1893C-0.0422994 31.3751 0.222638 30.5733 0.746185 29.9478C1.26973 29.3223 2.01237 28.9203 2.82237 28.824L3.19681 28.8016H6.39716ZM60.8032 28.8016C61.6189 28.8025 62.4035 29.1148 62.9966 29.6748C63.5898 30.2347 63.9467 31 63.9945 31.8142C64.0423 32.6285 63.7774 33.4303 63.2538 34.0558C62.7303 34.6812 61.9876 35.0832 61.1776 35.1796L60.8032 35.202H57.6028C56.7871 35.201 56.0026 34.8887 55.4094 34.3288C54.8163 33.7689 54.4593 33.0036 54.4115 32.1893C54.3637 31.3751 54.6287 30.5733 55.1522 29.9478C55.6758 29.3223 56.4184 28.9203 57.2284 28.824L57.6028 28.8016H60.8032ZM13.4795 8.9925L13.7804 9.25811L16.0206 11.4982C16.5946 12.0741 16.9278 12.8469 16.9527 13.6596C16.9775 14.4723 16.692 15.2639 16.1542 15.8738C15.6165 16.4836 14.8667 16.8659 14.0573 16.943C13.2479 17.0201 12.4394 16.7862 11.7962 16.2889L11.4953 16.0233L9.25508 13.7832C8.70491 13.2317 8.37477 12.4985 8.32655 11.7211C8.27833 10.9436 8.51535 10.1753 8.99317 9.56006C9.47099 8.94486 10.1568 8.52504 10.922 8.37932C11.6873 8.23359 12.4794 8.37196 13.1499 8.76849L13.4795 8.9925ZM54.7449 9.25811C55.2959 9.80916 55.627 10.5423 55.6759 11.32C55.7248 12.0978 55.4882 12.8666 55.0106 13.4823L54.7449 13.7832L52.5047 16.0233C51.9287 16.5972 51.1559 16.9305 50.3432 16.9553C49.5305 16.9801 48.7388 16.6946 48.1289 16.1569C47.519 15.6192 47.1367 14.8695 47.0596 14.0601C46.9825 13.2507 47.2164 12.4423 47.7137 11.7991L47.9794 11.4982L50.2196 9.25811C50.8198 8.65817 51.6336 8.32114 52.4823 8.32114C53.3309 8.32114 54.1448 8.65817 54.7449 9.25811ZM32 0C32.7839 0.0001034 33.5404 0.287876 34.1262 0.808734C34.712 1.32959 35.0862 2.04731 35.178 2.82576L35.2004 3.20018V6.40035C35.1994 7.21601 34.8871 8.00055 34.3271 8.59366C33.7672 9.18676 33.0019 9.54368 32.1876 9.59148C31.3733 9.63928 30.5714 9.37436 29.9459 8.85084C29.3204 8.32733 28.9184 7.58473 28.822 6.77478L28.7996 6.40035V3.20018C28.7996 2.35144 29.1368 1.53746 29.737 0.93731C30.3372 0.33716 31.1512 0 32 0ZM32 16.0009C35.1353 16.0007 38.2016 16.9215 40.818 18.649C43.4344 20.3765 45.4857 22.8345 46.717 25.7178C47.9484 28.601 48.3055 31.7825 47.7441 34.8669C47.1827 37.9514 45.7274 40.803 43.5591 43.0675C41.3908 45.3321 38.605 46.9098 35.5477 47.6047C32.4904 48.2996 29.2962 48.081 26.362 46.9762C23.4279 45.8715 20.8829 43.9291 19.0432 41.3903C17.2036 38.8516 16.1503 35.8284 16.0142 32.6962L15.9982 32.0018L16.0142 31.3073C16.1932 27.1879 17.9556 23.2966 20.9339 20.4448C23.9122 17.5931 27.8765 16.0011 32 16.0009Z" fill="white"/>
</svg>
