<svg width="66" height="66" viewBox="0 0 66 66" fill="none" xmlns="http://www.w3.org/2000/svg">
<path d="M33 25.8889C34.6342 25.8889 36.2525 25.567 37.7623 24.9416C39.2721 24.3162 40.644 23.3996 41.7996 22.244C42.9551 21.0884 43.8718 19.7166 44.4972 18.2067C45.1226 16.6969 45.4444 15.0787 45.4444 13.4444C45.4444 11.8102 45.1226 10.192 44.4972 8.68216C43.8718 7.17233 42.9551 5.80047 41.7996 4.64489C40.644 3.48932 39.2721 2.57267 37.7623 1.94728C36.2525 1.32188 34.6342 1 33 1C29.6995 1 26.5342 2.31111 24.2004 4.64489C21.8667 6.97868 20.5556 10.144 20.5556 13.4444C20.5556 16.7449 21.8667 19.9102 24.2004 22.244C26.5342 24.5778 29.6995 25.8889 33 25.8889ZM1 62.8667V65H65V62.8667C65 54.9022 65 50.92 63.4498 47.8764C62.0863 45.2005 59.9106 43.0248 57.2347 41.6613C54.1911 40.1111 50.2089 40.1111 42.2444 40.1111H23.7556C15.7911 40.1111 11.8089 40.1111 8.76533 41.6613C6.08937 43.0248 3.91373 45.2005 2.55022 47.8764C1 50.92 1 54.9022 1 62.8667Z" fill="white" stroke="white" stroke-width="2" stroke-linecap="round" stroke-linejoin="round"/>
</svg>
