<svg width="64" height="64" viewBox="0 0 64 64" fill="none" xmlns="http://www.w3.org/2000/svg">
<path fill-rule="evenodd" clip-rule="evenodd" d="M22.4668 34.7259C22.1644 37.5704 21.358 39.8416 19.954 41.8556C18.0712 44.5421 14.914 47.0522 9.694 49.7204C9.35912 49.8707 9.05765 50.0889 8.80789 50.3617C8.55813 50.6346 8.36528 50.9564 8.24105 51.3076C8.11683 51.6589 8.06382 52.0322 8.08523 52.405C8.10665 52.7778 8.20205 53.1423 8.36565 53.4763C8.52924 53.8104 8.75762 54.1069 9.03691 54.3481C9.31621 54.5893 9.6406 54.77 9.99039 54.8793C10.3402 54.9886 10.7081 55.0242 11.0718 54.9839C11.4354 54.9437 11.7873 54.8284 12.106 54.645C17.686 51.8005 21.7288 48.7979 24.346 45.053C27.0136 41.2455 28 36.9567 28 31.9695V15.4315C28 13.7257 27.3363 12.0899 26.1548 10.8837C24.9733 9.6776 23.3709 9 21.7 9H7.3C5.62914 9 4.02671 9.6776 2.84523 10.8837C1.66375 12.0899 1 13.7257 1 15.4315V28.2944C1 31.8446 3.8224 34.7259 7.3 34.7259H22.4668ZM58.4668 34.7259C58.1644 37.5704 57.358 39.8416 55.954 41.8556C54.0712 44.5421 50.914 47.0522 45.694 49.7204C45.3591 49.8707 45.0576 50.0889 44.8079 50.3617C44.5581 50.6346 44.3653 50.9564 44.2411 51.3076C44.1168 51.6589 44.0638 52.0322 44.0852 52.405C44.1067 52.7778 44.2021 53.1423 44.3656 53.4763C44.5292 53.8104 44.7576 54.1069 45.0369 54.3481C45.3162 54.5893 45.6406 54.77 45.9904 54.8793C46.3402 54.9886 46.7081 55.0242 47.0718 54.9839C47.4354 54.9437 47.7873 54.8284 48.106 54.645C53.686 51.8005 57.7288 48.7979 60.346 45.053C63.0136 41.2455 64 36.9567 64 31.9695V15.4315C64 13.7257 63.3362 12.0899 62.1548 10.8837C60.9733 9.6776 59.3709 9 57.7 9H43.3C41.6291 9 40.0267 9.6776 38.8452 10.8837C37.6637 12.0899 37 13.7257 37 15.4315V28.2944C37 31.8446 39.8224 34.7259 43.3 34.7259H58.4668Z" fill="white"/>
</svg>
